<svg width="299" height="69" viewBox="0 0 299 69" fill="none" xmlns="http://www.w3.org/2000/svg">
<rect width="299" height="69" rx="5" fill="#4953B8"/>
<path d="M87.0426 26.9091H84.4411L89.0497 40H91.9773L96.5923 26.9091H93.9844L90.5838 37.2131H90.4496L87.0426 26.9091ZM101.506 40.1918C103.795 40.1918 105.367 39.0732 105.776 37.3665L103.616 37.1236C103.302 37.9545 102.535 38.3892 101.538 38.3892C100.042 38.3892 99.0517 37.4048 99.0325 35.7237H105.872V35.0142C105.872 31.5689 103.801 30.054 101.385 30.054C98.5723 30.054 96.7377 32.1186 96.7377 35.1484C96.7377 38.2294 98.5467 40.1918 101.506 40.1918ZM99.0389 34.1641C99.1092 32.9112 100.036 31.8565 101.417 31.8565C102.746 31.8565 103.641 32.8281 103.654 34.1641H99.0389ZM107.83 30.1818V40.5305C107.83 41.3551 107.478 41.7962 106.589 41.7962C106.474 41.7962 106.385 41.7898 106.257 41.7834V43.669C106.423 43.6818 106.564 43.6818 106.73 43.6818C108.897 43.6818 110.143 42.6847 110.143 40.5625V30.1818H107.83ZM108.98 28.7884C109.715 28.7884 110.316 28.2259 110.316 27.5355C110.316 26.8388 109.715 26.2763 108.98 26.2763C108.239 26.2763 107.638 26.8388 107.638 27.5355C107.638 28.2259 108.239 28.7884 108.98 28.7884ZM115.348 40.1982C116.889 40.1982 117.809 39.4759 118.231 38.6513H118.308V40H120.532V33.429C120.532 30.8338 118.416 30.054 116.544 30.054C114.479 30.054 112.894 30.9744 112.382 32.7642L114.543 33.071C114.773 32.3999 115.425 31.8246 116.556 31.8246C117.63 31.8246 118.218 32.3743 118.218 33.3395V33.3778C118.218 34.0426 117.521 34.0746 115.789 34.2599C113.884 34.4645 112.063 35.0334 112.063 37.245C112.063 39.1754 113.475 40.1982 115.348 40.1982ZM115.949 38.4979C114.984 38.4979 114.294 38.0568 114.294 37.2067C114.294 36.3182 115.067 35.9474 116.102 35.8004C116.71 35.7173 117.924 35.5639 118.225 35.321V36.478C118.225 37.571 117.343 38.4979 115.949 38.4979ZM130.149 40.1982C131.689 40.1982 132.61 39.4759 133.032 38.6513H133.108V40H135.333V33.429C135.333 30.8338 133.217 30.054 131.344 30.054C129.28 30.054 127.694 30.9744 127.183 32.7642L129.344 33.071C129.574 32.3999 130.226 31.8246 131.357 31.8246C132.431 31.8246 133.019 32.3743 133.019 33.3395V33.3778C133.019 34.0426 132.322 34.0746 130.59 34.2599C128.685 34.4645 126.863 35.0334 126.863 37.245C126.863 39.1754 128.276 40.1982 130.149 40.1982ZM130.75 38.4979C129.785 38.4979 129.094 38.0568 129.094 37.2067C129.094 36.3182 129.868 35.9474 130.903 35.8004C131.51 35.7173 132.725 35.5639 133.025 35.321V36.478C133.025 37.571 132.143 38.4979 130.75 38.4979ZM137.66 43.6818H139.974V38.4531H140.069C140.434 39.169 141.194 40.1726 142.882 40.1726C145.196 40.1726 146.928 38.3381 146.928 35.1037C146.928 31.831 145.145 30.054 142.876 30.054C141.143 30.054 140.421 31.0959 140.069 31.8054H139.935V30.1818H137.66V43.6818ZM139.929 35.0909C139.929 33.1861 140.747 31.9524 142.236 31.9524C143.777 31.9524 144.569 33.2628 144.569 35.0909C144.569 36.9318 143.764 38.2741 142.236 38.2741C140.76 38.2741 139.929 36.9957 139.929 35.0909ZM151.224 26.9091H148.91V40H151.224V26.9091ZM153.603 40H155.917V30.1818H153.603V40ZM154.766 28.7884C155.501 28.7884 156.102 28.2259 156.102 27.5355C156.102 26.8388 155.501 26.2763 154.766 26.2763C154.025 26.2763 153.424 26.8388 153.424 27.5355C153.424 28.2259 154.025 28.7884 154.766 28.7884ZM162.579 40.1918C165.046 40.1918 166.619 38.728 166.785 36.6442H164.573C164.375 37.6989 163.615 38.3061 162.598 38.3061C161.154 38.3061 160.22 37.098 160.22 35.0909C160.22 33.1094 161.173 31.9205 162.598 31.9205C163.71 31.9205 164.394 32.6364 164.573 33.5824H166.785C166.625 31.4538 164.963 30.054 162.566 30.054C159.69 30.054 157.874 32.1314 157.874 35.1293C157.874 38.1016 159.645 40.1918 162.579 40.1918ZM171.51 40.1982C173.051 40.1982 173.971 39.4759 174.393 38.6513H174.47V40H176.694V33.429C176.694 30.8338 174.578 30.054 172.706 30.054C170.641 30.054 169.056 30.9744 168.544 32.7642L170.705 33.071C170.935 32.3999 171.587 31.8246 172.718 31.8246C173.792 31.8246 174.38 32.3743 174.38 33.3395V33.3778C174.38 34.0426 173.684 34.0746 171.951 34.2599C170.047 34.4645 168.225 35.0334 168.225 37.245C168.225 39.1754 169.637 40.1982 171.51 40.1982ZM172.111 38.4979C171.146 38.4979 170.456 38.0568 170.456 37.2067C170.456 36.3182 171.229 35.9474 172.265 35.8004C172.872 35.7173 174.086 35.5639 174.387 35.321V36.478C174.387 37.571 173.505 38.4979 172.111 38.4979ZM183.853 40.1662C186.001 39.968 187.356 38.5682 187.51 36.6442H185.298C185.1 37.6989 184.339 38.3061 183.323 38.3061C181.878 38.3061 180.945 37.098 180.945 35.0909C180.945 33.1094 181.897 31.9205 183.323 31.9205C184.435 31.9205 185.119 32.6364 185.298 33.5824H187.51C187.35 31.4538 185.688 30.054 183.291 30.054C180.414 30.054 178.599 32.1314 178.599 35.1293C178.599 37.8523 180.088 39.8402 182.594 40.147L182.364 41.2337C183.272 41.3295 183.681 41.5469 183.668 42.0902C183.655 42.6527 183.035 42.902 182.057 42.902L182.083 44.0398C184.103 44.0398 185.234 43.2408 185.228 42.0327C185.228 41.0994 184.588 40.6136 183.789 40.4922L183.853 40.1662ZM192.235 40.1982C193.775 40.1982 194.696 39.4759 195.118 38.6513H195.194V40H197.419V33.429C197.419 30.8338 195.303 30.054 193.43 30.054C191.366 30.054 189.78 30.9744 189.269 32.7642L191.43 33.071C191.66 32.3999 192.312 31.8246 193.443 31.8246C194.517 31.8246 195.105 32.3743 195.105 33.3395V33.3778C195.105 34.0426 194.408 34.0746 192.676 34.2599C190.771 34.4645 188.949 35.0334 188.949 37.245C188.949 39.1754 190.362 40.1982 192.235 40.1982ZM191.653 28.9865C191.653 28.4048 191.973 28.0149 192.427 28.0149C192.81 28.0149 193.072 28.2003 193.354 28.4048C193.705 28.6541 194.095 28.929 194.773 28.9226C195.91 28.9162 196.799 28.0341 196.812 26.5128L195.437 26.4553C195.431 27.0241 195.124 27.4332 194.638 27.4332C194.268 27.4332 193.98 27.2415 193.667 27.0369C193.296 26.794 192.893 26.5256 192.292 26.5256C191.148 26.5256 190.253 27.4332 190.253 28.9545L191.653 28.9865ZM192.836 38.4979C191.871 38.4979 191.18 38.0568 191.18 37.2067C191.18 36.3182 191.954 35.9474 192.989 35.8004C193.596 35.7173 194.811 35.5639 195.111 35.321V36.478C195.111 37.571 194.229 38.4979 192.836 38.4979ZM204.028 40.1918C206.905 40.1918 208.733 38.1655 208.733 35.1293C208.733 32.0866 206.905 30.054 204.028 30.054C201.152 30.054 199.324 32.0866 199.324 35.1293C199.324 38.1655 201.152 40.1918 204.028 40.1918ZM204.041 38.3381C202.449 38.3381 201.67 36.919 201.67 35.1229C201.67 33.3267 202.449 31.8885 204.041 31.8885C205.607 31.8885 206.387 33.3267 206.387 35.1229C206.387 36.919 205.607 38.3381 204.041 38.3381ZM215.162 40H217.475V34.228C217.475 32.9815 218.415 32.0994 219.687 32.0994C220.077 32.0994 220.563 32.1697 220.761 32.2337V30.1051C220.55 30.0668 220.186 30.0412 219.93 30.0412C218.805 30.0412 217.865 30.6804 217.507 31.8182H217.405V30.1818H215.162V40ZM226.177 40.1918C229.053 40.1918 230.881 38.1655 230.881 35.1293C230.881 32.0866 229.053 30.054 226.177 30.054C223.3 30.054 221.472 32.0866 221.472 35.1293C221.472 38.1655 223.3 40.1918 226.177 40.1918ZM226.189 38.3381C224.598 38.3381 223.818 36.919 223.818 35.1229C223.818 33.3267 224.598 31.8885 226.189 31.8885C227.756 31.8885 228.535 33.3267 228.535 35.1229C228.535 36.919 227.756 38.3381 226.189 38.3381ZM236.489 40.1726C238.176 40.1726 238.937 39.169 239.301 38.4531H239.442V40H241.717V26.9091H239.397V31.8054H239.301C238.95 31.0959 238.227 30.054 236.495 30.054C234.226 30.054 232.442 31.831 232.442 35.1037C232.442 38.3381 234.175 40.1726 236.489 40.1726ZM237.134 38.2741C235.607 38.2741 234.801 36.9318 234.801 35.0909C234.801 33.2628 235.594 31.9524 237.134 31.9524C238.624 31.9524 239.442 33.1861 239.442 35.0909C239.442 36.9957 238.611 38.2741 237.134 38.2741ZM247.008 40.1982C248.549 40.1982 249.469 39.4759 249.891 38.6513H249.968V40H252.192V33.429C252.192 30.8338 250.077 30.054 248.204 30.054C246.139 30.054 244.554 30.9744 244.042 32.7642L246.203 33.071C246.433 32.3999 247.085 31.8246 248.216 31.8246C249.29 31.8246 249.878 32.3743 249.878 33.3395V33.3778C249.878 34.0426 249.182 34.0746 247.449 34.2599C245.545 34.4645 243.723 35.0334 243.723 37.245C243.723 39.1754 245.135 40.1982 247.008 40.1982ZM247.609 38.4979C246.644 38.4979 245.954 38.0568 245.954 37.2067C245.954 36.3182 246.727 35.9474 247.763 35.8004C248.37 35.7173 249.584 35.5639 249.885 35.321V36.478C249.885 37.571 249.003 38.4979 247.609 38.4979ZM256.833 34.2472C256.833 32.8281 257.689 32.0099 258.91 32.0099C260.106 32.0099 260.822 32.7962 260.822 34.1065V40H263.135V33.7486C263.142 31.3963 261.8 30.054 259.773 30.054C258.303 30.054 257.293 30.7571 256.846 31.8501H256.731V30.1818H254.519V40H256.833V34.2472ZM269.131 40.1726C270.819 40.1726 271.579 39.169 271.944 38.4531H272.084V40H274.36V26.9091H272.04V31.8054H271.944C271.592 31.0959 270.87 30.054 269.138 30.054C266.868 30.054 265.085 31.831 265.085 35.1037C265.085 38.3381 266.817 40.1726 269.131 40.1726ZM269.777 38.2741C268.249 38.2741 267.444 36.9318 267.444 35.0909C267.444 33.2628 268.236 31.9524 269.777 31.9524C271.266 31.9524 272.084 33.1861 272.084 35.0909C272.084 36.9957 271.253 38.2741 269.777 38.2741ZM281.108 40.1918C283.985 40.1918 285.813 38.1655 285.813 35.1293C285.813 32.0866 283.985 30.054 281.108 30.054C278.232 30.054 276.404 32.0866 276.404 35.1293C276.404 38.1655 278.232 40.1918 281.108 40.1918ZM281.121 38.3381C279.529 38.3381 278.75 36.919 278.75 35.1229C278.75 33.3267 279.529 31.8885 281.121 31.8885C282.687 31.8885 283.467 33.3267 283.467 35.1229C283.467 36.919 282.687 38.3381 281.121 38.3381Z" fill="white"/>
<g clip-path="url(#clip0)">
<path d="M63.4194 17.8291H18.5803C17.1577 17.8291 16 18.9865 16 20.4099V35.075C16 36.4987 17.1577 37.6563 18.5803 37.6563H63.4197C64.8423 37.6563 66 36.4987 66 35.0753V20.4099C65.9998 18.9865 64.8423 17.8291 63.4194 17.8291ZM64.2759 35.0753H64.2757C64.2757 35.5474 63.8918 35.9322 63.4194 35.9322H18.5803C18.1079 35.9322 17.7241 35.5474 17.7241 35.0753V20.4099C17.7241 19.9378 18.1079 19.5529 18.5803 19.5529H63.4197C63.8918 19.5529 64.2759 19.9378 64.2759 20.4099V35.0753Z" fill="white"/>
<path d="M31.86 23.9238C31.4255 23.7251 30.9154 23.9171 30.7174 24.349L28.1128 30.0366L27.3214 28.3753L28.837 25.0661C29.0348 24.6334 28.8455 24.1215 28.4118 23.9235C27.9774 23.7248 27.4663 23.9168 27.2693 24.3488L26.3545 26.3463L25.397 24.3369C25.1924 23.9067 24.6805 23.7223 24.2488 23.9295C23.8186 24.1342 23.636 24.6485 23.8414 25.0777L25.4189 28.3892L24.6646 30.0362L21.9486 24.3371C21.7449 23.9069 21.2321 23.7226 20.8004 23.9297C20.3701 24.1344 20.1875 24.6488 20.393 25.078L23.902 32.4433C24.0441 32.7437 24.3473 32.935 24.6798 32.935C24.6822 32.935 24.684 32.935 24.6865 32.935C25.0207 32.9326 25.3239 32.7363 25.4635 32.4316L26.3855 30.4187L27.3501 32.4435C27.4923 32.744 27.7955 32.9353 28.128 32.9353C28.1304 32.9353 28.1322 32.9353 28.1347 32.9353C28.4689 32.9328 28.772 32.7366 28.9117 32.4319L32.285 25.0666C32.4827 24.6339 32.2934 24.1218 31.86 23.9238Z" fill="white"/>
<path d="M46.515 23.9238C46.0798 23.7251 45.5705 23.9171 45.3725 24.349L42.7679 30.0366L41.9764 28.3753L43.4921 25.0661C43.6898 24.6334 43.5005 24.1215 43.0668 23.9235C42.6324 23.7248 42.1223 23.9168 41.9245 24.3488L41.0098 26.3463L40.0523 24.3369C39.8486 23.9067 39.335 23.7223 38.9041 23.9295C38.4739 24.1342 38.2913 24.6485 38.4967 25.0777L40.0742 28.3892L39.3199 30.0362L36.6039 24.3371C36.4002 23.9069 35.8866 23.7226 35.4556 23.9297C35.0254 24.1344 34.8428 24.6488 35.0482 25.078L38.5572 32.4433C38.6994 32.7437 39.0026 32.935 39.335 32.935C39.3375 32.935 39.3393 32.935 39.3417 32.935C39.6759 32.9326 39.9791 32.7363 40.1188 32.4316L41.0408 30.4187L42.0054 32.4435C42.1476 32.744 42.4508 32.9353 42.7832 32.9353C42.7857 32.9353 42.7875 32.9353 42.7899 32.9353C43.1241 32.9328 43.4273 32.7366 43.567 32.4319L46.9403 25.0666C47.138 24.6339 46.9487 24.1218 46.515 23.9238Z" fill="white"/>
<path d="M61.1701 23.9238C60.7356 23.7251 60.2255 23.9171 60.0275 24.349L57.4229 30.0366L56.6314 28.3753L58.1471 25.0661C58.3449 24.6334 58.1556 24.1215 57.7219 23.9235C57.2874 23.7248 56.7773 23.9168 56.5793 24.3488L55.6646 26.3463L54.7071 24.3369C54.5034 23.9067 53.9906 23.7223 53.5589 23.9295C53.1287 24.1342 52.946 24.6485 53.1515 25.0777L54.7289 28.3892L53.9747 30.0362L51.2589 24.3369C51.0552 23.9067 50.5424 23.7223 50.1107 23.9295C49.6805 24.1342 49.4978 24.6485 49.7033 25.0777L53.2123 32.443C53.3544 32.7435 53.6576 32.9348 53.9901 32.9348C53.9926 32.9348 53.9943 32.9348 53.9968 32.9348C54.331 32.9323 54.6342 32.7361 54.7739 32.4314L55.6958 30.4185L56.6605 32.4433C56.8026 32.7437 57.1058 32.935 57.4383 32.935C57.4408 32.935 57.4425 32.935 57.445 32.935C57.7792 32.9326 58.0824 32.7363 58.2221 32.4316L61.5953 25.0663C61.7931 24.6339 61.6035 24.1218 61.1701 23.9238Z" fill="white"/>
<path d="M61.5181 49.8133L48.3284 39.1179C48.0642 38.9033 47.697 38.8653 47.3941 39.0194C47.0909 39.1735 46.9065 39.4925 46.9244 39.8327L47.8243 56.7896C47.8436 57.1506 48.086 57.4615 48.4322 57.5684C48.7755 57.6728 49.1527 57.5533 49.3717 57.2652C49.3879 57.2451 50.711 55.5098 52.1582 54.0644L56.0486 61.7001C56.152 61.9038 56.3321 62.0579 56.5502 62.1286C56.6371 62.1564 56.7271 62.1708 56.8162 62.1708C56.9509 62.1708 57.0856 62.1388 57.2077 62.0765L60.2805 60.5107C60.4842 60.4072 60.6383 60.2271 60.709 60.009C60.7797 59.7917 60.7611 59.5552 60.6569 59.3515L56.7666 51.7168C58.7862 51.396 60.9675 51.3446 60.9936 51.3446C61.3546 51.3362 61.6739 51.104 61.7908 50.7621C61.9076 50.4194 61.7992 50.0406 61.5181 49.8133ZM55.2846 50.2448C55.0254 50.3038 54.8083 50.4787 54.6954 50.7196C54.5835 50.9603 54.5877 51.2399 54.7088 51.4764L58.7296 59.3662L57.1933 60.1492L53.1725 52.2584C53.0522 52.022 52.8291 51.8535 52.5681 51.8039C52.5143 51.7929 52.4594 51.7877 52.4049 51.7877C52.1987 51.7877 51.9965 51.8617 51.8384 52.0009C50.9839 52.7459 50.12 53.6771 49.4281 54.475L48.7497 41.6786L58.7031 49.7495C57.6513 49.8406 56.3902 49.9922 55.2846 50.2448Z" fill="white"/>
</g>
<defs>
<clipPath id="clip0">
<rect width="50" height="50" fill="white" transform="translate(16 15)"/>
</clipPath>
</defs>
</svg>
